<svg width="162" height="23" viewBox="0 0 162 23" fill="none" xmlns="http://www.w3.org/2000/svg">
<g clip-path="url(#clip0_102_2175)">
<path fill-rule="evenodd" clip-rule="evenodd" d="M28.6674 9.03349C26.907 9.36295 25.2547 9.83994 23.7648 10.5087C23.6025 10.5825 23.5533 10.6857 23.5385 10.73C23.5139 10.8086 23.5238 10.8824 23.5631 10.9513C23.5877 10.9955 23.6271 11.0496 23.7107 11.0841C23.7697 11.1086 23.9221 11.1283 24.1237 11.1234C24.4679 11.1185 24.9991 11.0791 25.2548 11.0791C26.1301 11.089 27.0053 11.084 27.8806 11.0988C30.6688 11.1479 31.1556 11.1873 34.7404 11.1578C38.9251 11.1234 43.1196 11.0643 47.3092 10.9758C33.9929 11.7134 20.6963 12.574 7.46854 13.3755C7.32102 13.3854 7.20791 13.5133 7.21775 13.6608C7.22266 13.8132 7.35541 13.9263 7.50293 13.9165C38.3694 12.0479 69.5752 9.84485 100.678 9.70224C102.212 9.73667 103.741 9.77107 105.266 9.80549C114.476 10.0219 123.691 10.2825 132.891 10.6857C135.886 10.8185 138.881 10.966 141.88 11.1037C142.766 11.143 143.656 11.1824 144.546 11.2217C145.264 11.2512 147.113 11.3594 147.373 11.3643C147.609 11.3692 147.668 11.1578 147.673 11.148C147.688 11.0791 147.678 11.0004 147.619 10.9267C147.604 10.907 147.565 10.8529 147.476 10.8283C147.462 10.8283 147.393 10.8185 147.25 10.8037C139.854 10.1989 132.439 9.78092 125.009 9.51538C126.007 9.52522 127.005 9.53016 128.004 9.53999C135.699 9.599 143.415 9.81045 151.105 9.53999C152.856 9.48098 154.612 9.41211 156.357 9.32852C157.533 9.27443 160.557 9.34328 160.984 9.21543C161.181 9.16134 161.225 9.02363 161.23 8.95479C161.235 8.87611 161.221 8.7876 161.132 8.70892C161.093 8.66958 160.97 8.60569 160.739 8.55651C153.19 6.91902 144.359 7.38122 136.673 6.9239C115.799 5.66997 94.998 6.50596 74.1286 7.26816C56.1162 7.92709 38.1038 7.9615 20.1013 8.85647C13.512 9.18101 6.71618 8.80731 0.220313 10.0465C0.0727908 10.076 -0.0206707 10.2136 0.00391621 10.3612C0.0334205 10.5087 0.176037 10.6071 0.323558 10.5776C6.78992 9.34329 13.5612 9.72192 20.1259 9.39737C22.9731 9.25476 25.8202 9.13675 28.6674 9.03349ZM84.3568 9.39737C73.3271 9.22526 62.2974 9.13672 51.2579 9.19082C43.6851 9.22524 32.6505 7.7845 25.1269 10.5382C25.181 10.5382 25.2252 10.5382 25.2645 10.5382C26.1398 10.5481 27.0152 10.5382 27.8905 10.5579C30.6737 10.607 31.1605 10.6464 34.7354 10.6169C43.8769 10.5382 53.0429 10.3415 62.1794 10.0367C69.5801 9.79078 76.9709 9.56948 84.3568 9.39737ZM158.968 8.763C151.833 7.51399 143.744 7.88776 136.638 7.46487C115.784 6.21093 94.998 7.04686 74.1483 7.80906C64.8299 8.15328 55.5164 8.32538 46.2077 8.53682C47.9928 8.60567 49.6991 8.65483 51.2579 8.64991C67.0378 8.57124 82.8127 8.78272 98.5926 9.1171C108.393 8.96958 118.193 8.91549 128.008 8.99417C135.699 9.05809 143.4 9.26463 151.091 8.99909C152.836 8.94008 154.587 8.87121 156.333 8.78762C156.928 8.76303 158.005 8.76792 158.968 8.763Z" fill="#F7C35F"/>
</g>
<defs>
<clipPath id="clip0_102_2175">
<rect width="161.25" height="22.5" fill="white"/>
</clipPath>
</defs>
</svg>
